<svg width="190" height="190" viewBox="0 0 190 190" fill="none" 
    xmlns="http://www.w3.org/2000/svg">
    <path d="M95 190C147.467 190 190 147.467 190 95C190 42.5329 147.467 0 95 0C42.5329 0 0 42.5329 0 95C0 147.467 42.5329 190 95 190Z" fill="url(#paint0_linear)"/>
    <path fill-rule="evenodd" clip-rule="evenodd" d="M77.9436 169.697C83.2635 166.136 86.4855 158.654 87.6094 147.25C88.7333 135.846 96.9026 121.857 112.117 105.281C109.689 109.243 109.689 111.401 112.117 111.756C115.761 112.288 134.656 104.968 137.856 99.6036C134.744 105.564 130.753 109.97 125.88 112.819C118.921 116.889 109.142 118.849 106.95 123.656C104.757 128.463 103.96 131.484 99.9997 140.222C98.0527 144.518 97.7241 149.46 96.6688 155.914C96.1474 159.103 93.6896 163.697 89.2952 169.697H77.9436Z" fill="white"/>
    <path fill-rule="evenodd" clip-rule="evenodd" d="M91.4269 169.697H111.539C111.539 158.935 111.238 150.978 110.636 145.825C109.734 138.096 107.513 130.048 99.9997 123.039C92.4862 116.03 83.7675 112.499 83.7675 110.65C83.7675 110.501 84.3814 110.865 84.4951 110.65C85.7882 108.21 93.3015 101.173 95.0172 94.3562C87.1018 103.232 82.2541 107.788 80.4742 108.024C77.8043 108.376 68.8906 106.545 60.7938 101.321C55.3959 97.8379 49.932 93.4598 44.4019 88.1866C46.1644 93.5174 48.8826 98.3454 52.5565 102.67C58.0673 109.158 65.0552 113.245 72.6034 117.289C77.6355 119.986 86.4505 123.39 99.0486 127.504C101.312 138.959 101.967 147.253 101.013 152.386C100.059 157.52 96.8637 163.29 91.4269 169.697Z" fill="white"/>
    <path fill-rule="evenodd" clip-rule="evenodd" d="M123.109 83.874C118.741 93.2977 115.041 99.7494 111.985 103.251C108.42 107.336 103.245 111.786 96.459 116.608L96.0486 116.9L95.6233 116.63C89.31 112.632 84.2448 108.639 80.4275 104.647C76.9308 100.989 72.2121 94.958 66.2614 86.5434C67.8746 100.78 75.6039 113.41 89.49 124.457C96.9763 130.413 98.215 140.004 95.7543 153.089C94.6714 158.847 92.4424 164.615 89.0711 170.391H92.0458C96.9112 163.286 100.129 156.461 101.705 149.917C103.178 143.803 103.351 139.914 102.96 132.635C102.88 131.159 102.855 130.652 102.825 129.904C102.791 129.024 102.773 128.237 102.773 127.474C102.773 123.908 104.426 121.438 111.181 113.272C113.86 110.035 115.35 108.089 116.628 106.027C117.105 105.257 117.517 104.517 117.864 103.801C119.716 99.983 121.469 93.3323 123.109 83.874Z" fill="white" stroke="url(#paint1_linear)" stroke-width="1.5"/>
    <path fill-rule="evenodd" clip-rule="evenodd" d="M103.918 75.3749C102.635 79.5622 102.7 83.3198 104.112 86.6477C105.525 89.9756 108.47 92.5105 112.948 94.2524C113.453 89.8447 113.018 86.0212 111.643 82.782C110.268 79.5427 107.693 77.0737 103.918 75.3749Z" fill="white"/>
    <path fill-rule="evenodd" clip-rule="evenodd" d="M114.155 63.7655C112.061 68.3044 111.344 71.9148 112.002 74.5968C112.66 77.2788 114.829 80.3607 118.51 83.8424C120.258 78.7317 120.743 74.9735 119.965 72.568C119.187 70.1624 117.251 67.2282 114.155 63.7655Z" fill="white"/>
    <path fill-rule="evenodd" clip-rule="evenodd" d="M138.065 67.5475C134.604 67.6322 131.816 68.7364 129.701 70.86C127.586 72.9836 126.894 75.8754 127.624 79.5353C131.434 78.5576 133.921 77.0806 135.085 75.1042C136.249 73.1278 137.243 70.6089 138.065 67.5475Z" fill="white"/>
    <path fill-rule="evenodd" clip-rule="evenodd" d="M123.646 99.4723C123.846 94.8122 125.695 91.5276 129.193 89.6185C132.691 87.7094 136.036 87.1136 139.227 87.8312C138.172 91.1099 136.492 93.7604 134.186 95.7828C131.88 97.8051 128.367 99.035 123.646 99.4723Z" fill="white"/>
    <path fill-rule="evenodd" clip-rule="evenodd" d="M75.2982 81.698C74.552 85.7571 74.7538 88.859 75.9037 91.0038C77.0535 93.1485 79.5516 95.1015 83.3979 96.8628C83.6727 92.7904 83.1141 89.5161 81.722 87.0398C80.3299 84.5636 78.1886 82.783 75.2982 81.698Z" fill="white"/>
    <path fill-rule="evenodd" clip-rule="evenodd" d="M81.2833 80.7587C81.1044 76.0974 82.5623 72.6132 85.6569 70.3062C88.7515 67.9993 92.9061 66.8458 98.1207 66.8458C96.2911 71.8324 94.5333 75.01 92.8474 76.3786C91.1614 77.7472 87.3068 79.2072 81.2833 80.7587Z" fill="white"/>
    <path fill-rule="evenodd" clip-rule="evenodd" d="M98.6237 51.6093C97.5958 56.8404 97.5958 60.472 98.6237 62.504C99.6516 64.5361 102.421 67.0558 106.932 70.0633C107.218 64.6509 106.773 60.7189 105.596 58.2673C104.419 55.8157 102.095 53.5964 98.6237 51.6093Z" fill="white"/>
    <path fill-rule="evenodd" clip-rule="evenodd" d="M110.029 38.4221C107.024 41.0415 105.361 43.5984 105.039 46.093C104.718 48.5876 105.907 52.2013 108.608 56.934C110.919 52.9432 112.206 49.5696 112.467 46.8132C112.728 44.0567 111.916 41.2597 110.029 38.4221Z" fill="white"/>
    <path fill-rule="evenodd" clip-rule="evenodd" d="M108.317 21.85C106.042 23.7319 104.782 25.5689 104.539 27.3612C104.295 29.1534 105.196 31.7497 107.241 35.15C108.992 32.2828 109.966 29.859 110.164 27.8786C110.362 25.8982 109.746 23.8887 108.317 21.85Z" fill="white"/>
    <path fill-rule="evenodd" clip-rule="evenodd" d="M126.689 52.1753C122.828 51.3624 119.301 51.7856 116.108 53.4449C112.916 55.1043 111.092 58.3669 110.636 63.2329C115.95 62.5725 119.544 61.4633 121.417 59.9052C123.29 58.3471 125.047 55.7704 126.689 52.1753Z" fill="white"/>
    <path fill-rule="evenodd" clip-rule="evenodd" d="M130.879 58.3529C127.142 59.5113 124.726 60.9346 123.632 62.6229C122.538 64.3112 122.067 67.2616 122.218 71.4742C125.832 69.4789 128.181 67.5049 129.266 65.5521C130.35 63.5993 130.888 61.1996 130.879 58.3529Z" fill="white"/>
    <path fill-rule="evenodd" clip-rule="evenodd" d="M127.563 26.606C124.622 27.2245 122.665 28.1586 121.692 29.4083C120.719 30.6579 120.114 32.9571 119.879 36.3058C122.796 35.0146 124.748 33.639 125.736 32.1791C126.724 30.7191 127.333 28.8614 127.563 26.606Z" fill="white"/>
    <path fill-rule="evenodd" clip-rule="evenodd" d="M39.0578 125.465C36.0827 125.04 33.9241 125.249 32.582 126.09C31.24 126.932 29.8856 128.885 28.5189 131.952C31.7016 131.736 34.0069 131.111 35.4348 130.077C36.8627 129.043 38.0704 127.506 39.0578 125.465Z" fill="white"/>
    <path fill-rule="evenodd" clip-rule="evenodd" d="M45.9212 129.799C43.3868 129.402 41.5559 129.541 40.4286 130.215C39.3012 130.89 38.1805 132.482 37.0663 134.993C39.7672 134.863 41.7163 134.383 42.9136 133.551C44.111 132.719 45.1135 131.469 45.9212 129.799Z" fill="white"/>
    <path fill-rule="evenodd" clip-rule="evenodd" d="M65.5508 117.032C63.4205 116.74 61.8722 116.902 60.9059 117.518C59.9397 118.135 58.9589 119.558 57.9635 121.787C60.2459 121.615 61.9015 121.15 62.9303 120.393C63.9591 119.637 64.8326 118.516 65.5508 117.032Z" fill="white"/>
    <path fill-rule="evenodd" clip-rule="evenodd" d="M105.357 93.5C101.62 94.6584 99.2046 96.0817 98.1106 97.77C97.0166 99.4582 96.5452 102.409 96.6964 106.621C100.31 104.626 102.659 102.652 103.744 100.699C104.829 98.7464 105.366 96.3466 105.357 93.5Z" fill="white"/>
    <path fill-rule="evenodd" clip-rule="evenodd" d="M145.124 50.7063C141.967 50.9321 139.19 52.263 136.795 54.6989C134.4 57.1349 133.532 60.7526 134.192 65.5521C138.635 63.5827 141.489 61.6659 142.753 59.8016C144.017 57.9373 144.807 54.9055 145.124 50.7063Z" fill="white"/>
    <path fill-rule="evenodd" clip-rule="evenodd" d="M152.378 128.046C150.412 125.821 147.758 124.562 144.414 124.27C141.071 123.977 137.623 125.556 134.071 129.008C138.188 131.121 141.366 132.077 143.603 131.875C145.841 131.673 148.766 130.396 152.378 128.046Z" fill="white"/>
    <path fill-rule="evenodd" clip-rule="evenodd" d="M163.57 60.4442C158.359 59.1081 153.894 59.0168 150.175 60.1703C146.456 61.3239 143.166 65.0295 140.305 71.2872C146.411 72.0805 150.955 71.6444 153.936 69.9787C156.918 68.3131 160.129 65.1349 163.57 60.4442Z" fill="white"/>
    <path fill-rule="evenodd" clip-rule="evenodd" d="M147.703 76.2126C144.425 75.5419 141.708 75.7842 139.551 76.9394C137.394 78.0945 135.947 80.3425 135.209 83.6834C138.657 83.8639 141.427 83.2557 143.52 81.8587C145.612 80.4617 147.006 78.5797 147.703 76.2126Z" fill="white"/>
    <path fill-rule="evenodd" clip-rule="evenodd" d="M160.753 122.575C159.261 120.52 157.63 119.239 155.861 118.732C154.091 118.226 152.176 118.666 150.115 120.052C151.944 121.936 153.785 123.05 155.638 123.396C157.492 123.741 159.196 123.467 160.753 122.575Z" fill="white"/>
    <path fill-rule="evenodd" clip-rule="evenodd" d="M167.697 71.4743C164.567 70.4164 161.661 70.4164 158.979 71.4743C156.296 72.5321 154.246 75.0399 152.827 78.9975C157.555 78.6265 160.856 77.9404 162.729 76.9394C164.603 75.9384 166.259 74.1167 167.697 71.4743Z" fill="white"/>
    <path fill-rule="evenodd" clip-rule="evenodd" d="M157.874 82.4045C153.849 82.2331 150.458 82.6697 147.703 83.7144C144.947 84.759 142.571 87.6392 140.575 92.3549C145.223 92.301 148.805 91.7149 151.322 90.5966C153.839 89.4782 156.023 86.7475 157.874 82.4045Z" fill="white"/>
    <path fill-rule="evenodd" clip-rule="evenodd" d="M157.574 96.4448C154.85 94.9425 151.55 94.6149 147.674 95.462C143.799 96.3091 141.187 98.9129 139.841 103.274C144.146 103.831 147.645 103.63 150.339 102.671C153.032 101.712 155.444 99.6364 157.574 96.4448Z" fill="white"/>
    <path fill-rule="evenodd" clip-rule="evenodd" d="M150.006 52.3274C148.013 53.3747 146.837 55.3087 146.479 58.1292C149.386 57.7082 151.502 57.1342 152.827 56.4071C154.152 55.68 155.311 54.3201 156.303 52.3274C154.098 51.28 151.998 51.28 150.006 52.3274Z" fill="white"/>
    <path fill-rule="evenodd" clip-rule="evenodd" d="M130.693 121.208C129.821 119.265 128.167 118.099 125.733 117.71C126.048 120.527 126.509 122.581 127.116 123.874C127.723 125.166 128.88 126.307 130.587 127.296C131.53 125.18 131.566 123.15 130.693 121.208Z" fill="white"/>
    <path fill-rule="evenodd" clip-rule="evenodd" d="M148.155 40.94C146.134 40.6608 144.433 41.3535 143.052 43.0181C141.672 44.6826 141.139 46.6935 141.456 49.0508C143.687 48.2198 145.362 47.1866 146.479 45.9513C147.596 44.7159 148.155 43.0455 148.155 40.94Z" fill="white"/>
    <path fill-rule="evenodd" clip-rule="evenodd" d="M137.108 32.1974C135.068 32.1665 133.465 33.0613 132.297 34.8817C131.129 36.7021 130.846 38.7629 131.447 41.0641C133.561 39.9673 135.097 38.7378 136.055 37.3755C137.014 36.0132 137.364 34.2872 137.108 32.1974Z" fill="white"/>
    <path fill-rule="evenodd" clip-rule="evenodd" d="M137.647 39.9509C135.484 40.3366 133.516 42.008 131.743 44.9654C129.969 47.9227 129.969 51.2128 131.743 54.8355C135.072 52.3511 137.041 49.9653 137.647 47.6781C138.254 45.3909 138.254 42.8151 137.647 39.9509Z" fill="white"/>
    <path fill-rule="evenodd" clip-rule="evenodd" d="M129.136 36.0714C126.356 35.5383 123.328 36.7025 120.05 39.5643C116.772 42.426 115.63 45.9117 116.624 50.0215C120.564 49.0472 123.635 47.3618 125.835 44.9654C128.036 42.5689 129.136 39.6043 129.136 36.0714Z" fill="white"/>
    <path fill-rule="evenodd" clip-rule="evenodd" d="M116.152 23.7667C113.331 26.8159 111.984 29.3553 112.112 31.3848C112.239 33.4144 113.169 35.9759 114.901 39.0696C116.955 35.0243 118.025 32.1917 118.112 30.572C118.198 28.9522 117.545 26.6838 116.152 23.7667Z" fill="white"/>
    <path fill-rule="evenodd" clip-rule="evenodd" d="M173.594 84.2736C170.335 82.8644 167.04 82.743 163.709 83.9094C160.377 85.0758 158.136 87.7365 156.985 91.8915C160.937 92.6472 164.376 92.3525 167.301 91.0074C170.226 89.6624 172.323 87.4178 173.594 84.2736Z" fill="white"/>
    <path fill-rule="evenodd" clip-rule="evenodd" d="M154.85 106.242C156.17 102.277 158.454 99.7516 161.701 98.665C164.948 97.5783 168.364 97.5783 171.95 98.665C169.48 102.752 166.915 105.116 164.254 105.757C161.593 106.398 158.459 106.56 154.85 106.242Z" fill="white"/>
    <path fill-rule="evenodd" clip-rule="evenodd" d="M149.752 114.723C148.787 112.35 147.462 110.504 145.777 109.185C144.092 107.866 141.114 107.419 136.843 107.844C138.378 110.625 140.215 112.513 142.355 113.509C144.495 114.505 146.961 114.909 149.752 114.723Z" fill="white"/>
    <path fill-rule="evenodd" clip-rule="evenodd" d="M168.468 114.146C166.361 112.085 164.106 110.74 161.703 110.111C159.301 109.481 155.906 110.349 151.519 112.715C154.421 114.949 157.245 116.109 159.989 116.195C162.733 116.28 165.559 115.597 168.468 114.146Z" fill="white"/>
    <path fill-rule="evenodd" clip-rule="evenodd" d="M104.473 35.5334C100.031 35.1305 96.2967 36.0934 93.2691 38.4221C90.2414 40.7509 88.3548 44.6173 87.6094 50.0215C92.7135 48.9606 96.5419 47.5225 99.0947 45.7069C101.648 43.8914 103.44 40.5002 104.473 35.5334Z" fill="white"/>
    <path fill-rule="evenodd" clip-rule="evenodd" d="M100.152 21.8298C97.103 22.6282 94.967 24.2315 93.744 26.6397C92.521 29.0479 92.521 31.9828 93.744 35.4443C96.6368 32.8045 98.5339 30.5354 99.4355 28.637C100.337 26.7386 100.576 24.4695 100.152 21.8298Z" fill="white"/>
    <path fill-rule="evenodd" clip-rule="evenodd" d="M86.389 21C84.1297 23.6238 83 26.2627 83 28.9167C83 31.5707 84.6276 34.3999 87.8828 37.4044C89.3972 34.1364 90.1544 31.3072 90.1544 28.9167C90.1544 26.5263 88.8992 23.8873 86.389 21Z" fill="white"/>
    <path fill-rule="evenodd" clip-rule="evenodd" d="M76.0544 23.6262C74.5069 25.9439 73.8698 28.5115 74.143 31.3289C74.4162 34.1463 76.1024 36.5048 79.2017 38.4044C80.2775 35.3384 80.6198 32.6104 80.2286 30.2202C79.8374 27.8301 78.446 25.6321 76.0544 23.6262Z" fill="white"/>
    <path fill-rule="evenodd" clip-rule="evenodd" d="M71.3451 58.1292C69.1297 62.1512 68.2912 65.5654 68.8295 68.372C69.3678 71.1785 71.6698 74.3046 75.7354 77.7501C76.9466 72.1247 77.2494 68.1664 76.6438 65.8749C76.0382 63.5835 74.272 61.0016 71.3451 58.1292Z" fill="white"/>
    <path fill-rule="evenodd" clip-rule="evenodd" d="M93.5961 53.3448C89.1503 53.9274 85.9747 55.1238 84.0693 56.934C82.164 58.7442 80.908 62.4128 80.3015 67.9397C84.7239 66.7521 87.917 64.8574 89.8809 62.2556C91.8447 59.6538 93.0832 56.6836 93.5961 53.3448Z" fill="white"/>
    <path fill-rule="evenodd" clip-rule="evenodd" d="M82.7266 39.9509C78.6714 41.9727 76.251 44.4034 75.4655 47.2429C74.68 50.0825 75.0728 53.9205 76.6438 58.7569C80.6595 55.2204 82.9299 51.9224 83.455 48.8628C83.9801 45.8033 83.7373 42.8327 82.7266 39.9509Z" fill="white"/>
    <path fill-rule="evenodd" clip-rule="evenodd" d="M51.3871 32.3C50.9377 38.9073 52.2254 43.8543 55.2503 47.1411C58.2753 50.4279 63.2918 52.1309 70.2999 52.25C68.6604 46.0666 66.2473 41.4463 63.0606 38.3891C59.8739 35.3319 55.9827 33.3022 51.3871 32.3Z" fill="white"/>
    <path fill-rule="evenodd" clip-rule="evenodd" d="M64.4894 53.9311C62.0276 55.7111 60.6687 57.7064 60.4126 59.917C60.1566 62.1276 61.0156 64.9421 62.9897 68.3607C65.2437 65.3075 66.3708 62.7347 66.3708 60.6423C66.3708 58.5498 65.7437 56.3128 64.4894 53.9311Z" fill="white"/>
    <path fill-rule="evenodd" clip-rule="evenodd" d="M131.366 113.617C131.729 116.633 132.815 118.789 134.625 120.084C136.434 121.38 139.312 121.993 143.259 121.924C141.681 118.472 139.978 116.239 138.147 115.225C136.317 114.21 134.057 113.674 131.366 113.617Z" fill="white"/>
    <path fill-rule="evenodd" clip-rule="evenodd" d="M50.2568 49.3539C47.997 54.0319 47.0244 57.7947 47.3389 60.6422C47.6534 63.4898 49.815 67.1005 53.8237 71.4743C56.0773 66.6041 56.9432 62.365 56.4214 58.757C55.8997 55.1489 53.8448 52.0145 50.2568 49.3539Z" fill="white"/>
    <path fill-rule="evenodd" clip-rule="evenodd" d="M58.3766 69.5178C58.4668 73.4814 59.2058 76.0752 60.5935 77.2994C61.9812 78.5236 64.7961 80.076 69.0383 81.9564C68.0149 77.8143 66.9239 74.8735 65.7651 73.134C64.6064 71.3945 62.1436 70.1891 58.3766 69.5178Z" fill="white"/>
    <path fill-rule="evenodd" clip-rule="evenodd" d="M46.446 37.05C43.8274 38.9201 42.3144 41.0099 41.907 43.3196C41.4996 45.6293 42.2561 48.3745 44.1765 51.5551C46.4553 48.7601 47.8063 46.3426 48.2293 44.3025C48.6523 42.2625 48.0579 39.845 46.446 37.05Z" fill="white"/>
    <path fill-rule="evenodd" clip-rule="evenodd" d="M62.5702 27.2725C62.114 30.9944 62.7206 33.9564 64.3901 36.1585C66.0597 38.3607 69.0241 39.9269 73.2835 40.8573C72.6739 36.6796 71.6568 33.5914 70.2321 31.5929C68.8074 29.5943 66.2534 28.1542 62.5702 27.2725Z" fill="white"/>
    <path fill-rule="evenodd" clip-rule="evenodd" d="M31.2402 44.6857C31.0372 49.1868 31.7385 52.4484 33.344 54.4705C34.9495 56.4926 38.3579 58.2066 43.569 59.6125C42.768 55.533 41.4084 52.1135 39.4901 49.354C37.5719 46.5945 34.8219 45.0384 31.2402 44.6857Z" fill="white"/>
    <path fill-rule="evenodd" clip-rule="evenodd" d="M42.1853 63.9345C40.118 66.518 39.2754 69.6768 39.6575 73.411C40.0397 77.1451 41.9947 80.3928 45.5226 83.1538C47.2919 78.3484 47.7342 74.4552 46.8495 71.4743C45.9649 68.4933 44.4101 65.98 42.1853 63.9345Z" fill="white"/>
    <path fill-rule="evenodd" clip-rule="evenodd" d="M54.5371 72.7689C52.3223 74.7372 51.0058 77.056 50.5876 79.7254C50.1693 82.3947 50.8507 85.3353 52.6317 88.5469C55.0471 85.3368 56.2547 82.7071 56.2547 80.6579C56.2547 78.6087 55.6822 75.9791 54.5371 72.7689Z" fill="white"/>
    <path fill-rule="evenodd" clip-rule="evenodd" d="M30.8623 82.5772C30.8248 85.2168 31.9752 87.425 34.3133 89.2018C36.6515 90.9786 39.5649 91.6513 43.0535 91.2196C42.0379 88.5771 40.5301 86.4637 38.53 84.8793C36.5299 83.2949 33.974 82.5275 30.8623 82.5772Z" fill="white"/>
    <path fill-rule="evenodd" clip-rule="evenodd" d="M44.9724 118.397C47.191 119.827 49.6733 120.022 52.4192 118.981C55.165 117.939 57.2793 115.825 58.7619 112.638C55.9828 112.099 53.3915 112.257 50.988 113.114C48.5844 113.971 46.5792 115.731 44.9724 118.397Z" fill="white"/>
    <path fill-rule="evenodd" clip-rule="evenodd" d="M61.7917 83.4591C59.8741 84.5843 58.7876 86.395 58.5321 88.8911C58.2766 91.3873 59.0685 93.8244 60.9076 96.2023C62.366 94.3012 63.2277 92.2689 63.4927 90.1055C63.7577 87.9421 63.1907 85.7266 61.7917 83.4591Z" fill="white"/>
    <path fill-rule="evenodd" clip-rule="evenodd" d="M33.5441 109.482C35.2046 108.336 37.0877 107.818 39.1934 107.927C41.2991 108.036 44.0425 109.24 47.4235 111.538C44.691 113.273 42.1158 113.86 39.6979 113.3C37.28 112.74 35.2287 111.467 33.5441 109.482Z" fill="white"/>
    <path fill-rule="evenodd" clip-rule="evenodd" d="M41.6904 125.667C43.2852 123.951 45.2753 122.893 47.6605 122.495C50.0456 122.097 53.3995 122.787 57.722 124.565C55.0624 127.217 52.3127 128.525 49.4729 128.487C46.6332 128.449 44.039 127.509 41.6904 125.667Z" fill="white"/>
    <path fill-rule="evenodd" clip-rule="evenodd" d="M17.2717 109.964C19.0665 108.554 21.0492 107.84 23.2199 107.822C25.3906 107.803 28.1471 108.981 31.4893 111.356C28.5459 113.504 25.8427 114.343 23.3795 113.871C20.9163 113.4 18.8804 112.097 17.2717 109.964Z" fill="white"/>
    <path fill-rule="evenodd" clip-rule="evenodd" d="M24.0542 120.182C25.8233 118.184 28.0476 116.929 30.7271 116.417C33.4065 115.906 37.1935 116.612 42.0879 118.537C39.1343 121.629 36.0585 123.188 32.8605 123.213C29.6625 123.238 26.7271 122.228 24.0542 120.182Z" fill="white"/>
    <path fill-rule="evenodd" clip-rule="evenodd" d="M87.9915 92.9287C87.4065 90.4722 87.6281 88.011 88.6562 85.545C89.6843 83.0789 92.0581 80.659 95.7776 78.2852C97.5293 82.4358 97.5213 85.8144 95.7536 88.4212C93.9859 91.0279 91.3985 92.5304 87.9915 92.9287Z" fill="white"/>
    <path fill-rule="evenodd" clip-rule="evenodd" d="M43.0406 97.3805C39.1703 96.1552 35.9205 96.1552 33.2911 97.3805C35.0316 101.025 37.1089 103.384 39.5229 104.459C41.9369 105.534 45.5109 105.713 50.245 104.996C49.3124 101.144 46.9109 98.6058 43.0406 97.3805Z" fill="white"/>
    <path fill-rule="evenodd" clip-rule="evenodd" d="M16.8483 96.5593C18.8843 100.954 20.9706 103.638 23.107 104.612C25.2435 105.585 29.0284 105.827 34.4617 105.338C31.7468 101.432 29.3662 98.9049 27.3201 97.7559C25.2739 96.6069 21.7834 96.208 16.8483 96.5593Z" fill="white"/>
    <path fill-rule="evenodd" clip-rule="evenodd" d="M26.7203 58.1292C26.6503 61.5399 27.3172 64.2907 28.7208 66.3816C30.1245 68.4724 32.7881 70.17 36.7116 71.4743C36.2905 67.514 35.4101 64.547 34.0705 62.5732C32.7308 60.5994 30.2808 59.118 26.7203 58.1292Z" fill="white"/>
    <path fill-rule="evenodd" clip-rule="evenodd" d="M20.0128 70.491C20.7586 74.6815 22.6297 77.5338 25.6262 79.0481C28.6227 80.5623 32.1838 80.8438 36.3096 79.8926C35.0153 76.2508 32.9111 73.6112 29.9972 71.9739C27.0832 70.3365 23.7551 69.8422 20.0128 70.491Z" fill="white"/>
    <path fill-rule="evenodd" clip-rule="evenodd" d="M14.3029 80.0673C15.2878 84.4613 16.9133 87.5106 19.1793 89.2151C21.4453 90.9196 25.4542 91.9755 31.2061 92.3827C28.3922 86.8348 25.6842 83.4579 23.0823 82.252C20.4803 81.0461 17.5538 80.3178 14.3029 80.0673Z" fill="white"/>
    <defs>
        <linearGradient id="paint0_linear" x1="95" y1="0" x2="95" y2="190" gradientUnits="userSpaceOnUse">
            <stop stop-color="#3185EB"/>
            <stop offset="1" stop-color="#09E1C3"/>
        </linearGradient>
        <linearGradient id="paint1_linear" x1="94.6851" y1="83.874" x2="94.6851" y2="170.391" gradientUnits="userSpaceOnUse">
            <stop stop-color="#20ABDA"/>
            <stop offset="1" stop-color="#0DD7C7"/>
        </linearGradient>
    </defs>
</svg>
