<svg width="397" height="205" viewBox="0 0 397 205" fill="none" 
    xmlns="http://www.w3.org/2000/svg">
    <path d="M5.30249 185.76V191.68H15.6705V195.84H5.30249V204H0.118494V181.6H17.0465V185.76H5.30249ZM22.156 181.6H27.34V204H22.156V181.6ZM54.8 181.6V204H50.544L39.376 190.4V204H34.256V181.6H38.544L49.68 195.2V181.6H54.8ZM76.4517 199.2H66.0517L64.0677 204H58.7557L68.7397 181.6H73.8597L83.8757 204H78.4357L76.4517 199.2ZM74.8197 195.264L71.2677 186.688L67.7157 195.264H74.8197ZM108.344 181.6V204H104.088L92.9197 190.4V204H87.7997V181.6H92.0877L103.224 195.2V181.6H108.344ZM125.963 204.384C123.681 204.384 121.611 203.893 119.755 202.912C117.921 201.909 116.47 200.533 115.403 198.784C114.358 197.013 113.835 195.019 113.835 192.8C113.835 190.581 114.358 188.597 115.403 186.848C116.47 185.077 117.921 183.701 119.755 182.72C121.611 181.717 123.691 181.216 125.995 181.216C127.937 181.216 129.686 181.557 131.243 182.24C132.822 182.923 134.145 183.904 135.211 185.184L131.883 188.256C130.369 186.507 128.491 185.632 126.251 185.632C124.865 185.632 123.627 185.941 122.539 186.56C121.451 187.157 120.598 188 119.979 189.088C119.382 190.176 119.083 191.413 119.083 192.8C119.083 194.187 119.382 195.424 119.979 196.512C120.598 197.6 121.451 198.453 122.539 199.072C123.627 199.669 124.865 199.968 126.251 199.968C128.491 199.968 130.369 199.083 131.883 197.312L135.211 200.384C134.145 201.685 132.822 202.677 131.243 203.36C129.665 204.043 127.905 204.384 125.963 204.384ZM140.312 181.6H145.496V204H140.312V181.6ZM167.164 199.2H156.764L154.78 204H149.468L159.452 181.6H164.572L174.588 204H169.148L167.164 199.2ZM165.532 195.264L161.98 186.688L158.428 195.264H165.532ZM178.512 181.6H183.696V199.776H194.928V204H178.512V181.6ZM230.631 181.6V204H225.447V194.816H215.271V204H210.087V181.6H215.271V190.432H225.447V181.6H230.631ZM252.283 199.2H241.883L239.899 204H234.587L244.571 181.6H249.691L259.707 204H254.267L252.283 199.2ZM250.651 195.264L247.099 186.688L243.547 195.264H250.651ZM277.903 204L273.583 197.76H273.327H268.815V204H263.631V181.6H273.327C275.311 181.6 277.028 181.931 278.479 182.592C279.951 183.253 281.082 184.192 281.871 185.408C282.66 186.624 283.055 188.064 283.055 189.728C283.055 191.392 282.65 192.832 281.839 194.048C281.05 195.243 279.919 196.16 278.447 196.8L283.471 204H277.903ZM277.807 189.728C277.807 188.469 277.402 187.509 276.591 186.848C275.78 186.165 274.596 185.824 273.039 185.824H268.815V193.632H273.039C274.596 193.632 275.78 193.291 276.591 192.608C277.402 191.925 277.807 190.965 277.807 189.728ZM309.146 204L309.114 190.56L302.522 201.632H300.186L293.626 190.848V204H288.762V181.6H293.05L301.434 195.52L309.69 181.6H313.946L314.01 204H309.146ZM331.773 204.384C329.447 204.384 327.346 203.883 325.469 202.88C323.613 201.877 322.151 200.501 321.085 198.752C320.039 196.981 319.517 194.997 319.517 192.8C319.517 190.603 320.039 188.629 321.085 186.88C322.151 185.109 323.613 183.723 325.469 182.72C327.346 181.717 329.447 181.216 331.773 181.216C334.098 181.216 336.189 181.717 338.045 182.72C339.901 183.723 341.362 185.109 342.429 186.88C343.495 188.629 344.029 190.603 344.029 192.8C344.029 194.997 343.495 196.981 342.429 198.752C341.362 200.501 339.901 201.877 338.045 202.88C336.189 203.883 334.098 204.384 331.773 204.384ZM331.773 199.968C333.095 199.968 334.29 199.669 335.357 199.072C336.423 198.453 337.255 197.6 337.853 196.512C338.471 195.424 338.781 194.187 338.781 192.8C338.781 191.413 338.471 190.176 337.853 189.088C337.255 188 336.423 187.157 335.357 186.56C334.29 185.941 333.095 185.632 331.773 185.632C330.45 185.632 329.255 185.941 328.189 186.56C327.122 187.157 326.279 188 325.661 189.088C325.063 190.176 324.765 191.413 324.765 192.8C324.765 194.187 325.063 195.424 325.661 196.512C326.279 197.6 327.122 198.453 328.189 199.072C329.255 199.669 330.45 199.968 331.773 199.968ZM370.069 181.6V204H365.813L354.645 190.4V204H349.525V181.6H353.813L364.949 195.2V181.6H370.069ZM387.721 196.064V204H382.536V196L373.864 181.6H379.369L385.353 191.552L391.337 181.6H396.425L387.721 196.064Z" fill="#555555"/>
    <path d="M197 138C235.108 138 266 107.108 266 69C266 30.8924 235.108 0 197 0C158.892 0 128 30.8924 128 69C128 107.108 158.892 138 197 138Z" fill="url(#paint0_linear)"/>
    <path fill-rule="evenodd" clip-rule="evenodd" d="M184.615 123.254C188.479 120.667 190.819 115.232 191.635 106.95C192.452 98.6671 198.385 88.5062 209.436 76.4673C207.672 79.3444 207.672 80.9119 209.436 81.1696C212.082 81.5563 225.806 76.24 228.13 72.3434C225.87 76.6728 222.971 79.8723 219.432 81.9421C214.378 84.8983 207.275 86.3215 205.682 89.813C204.09 93.3044 203.511 95.4984 200.635 101.846C199.221 104.966 198.982 108.555 198.215 113.243C197.837 115.559 196.052 118.896 192.86 123.254H184.615Z" fill="white"/>
    <path fill-rule="evenodd" clip-rule="evenodd" d="M194.407 123.253H209.014C209.014 115.437 208.796 109.657 208.359 105.915C207.703 100.301 206.09 94.4556 200.633 89.3648C195.176 84.274 188.844 81.7095 188.844 80.3667C188.844 80.2582 189.289 80.5227 189.372 80.3667C190.311 78.5942 195.768 73.483 197.014 68.532C191.265 74.979 187.744 78.2879 186.452 78.4588C184.512 78.7152 178.038 77.3853 172.157 73.5906C168.237 71.0609 164.268 67.881 160.252 64.051C161.532 67.9229 163.506 71.4295 166.175 74.5708C170.177 79.2828 175.253 82.2514 180.735 85.1888C184.39 87.147 190.792 89.62 199.942 92.6076C201.586 100.928 202.062 106.952 201.369 110.68C200.676 114.409 198.356 118.6 194.407 123.253Z" fill="white"/>
    <path fill-rule="evenodd" clip-rule="evenodd" d="M217.417 60.9191C214.245 67.7636 211.557 72.4496 209.338 74.9926C206.748 77.9599 202.989 81.1919 198.061 84.6942L197.763 84.906L197.454 84.7104C192.868 81.8065 189.189 78.9063 186.417 76.0066C183.877 73.3503 180.45 68.9696 176.128 62.8579C177.299 73.1984 182.913 82.3714 192.999 90.395C198.436 94.7207 199.336 101.687 197.549 111.191C196.762 115.373 195.143 119.563 192.695 123.758H194.855C198.389 118.597 200.726 113.64 201.871 108.887C202.94 104.447 203.067 101.622 202.782 96.3352C202.725 95.2631 202.706 94.8945 202.685 94.3514C202.66 93.7125 202.647 93.1405 202.647 92.5867C202.647 89.9964 203.847 88.2025 208.754 82.2716C210.699 79.9203 211.781 78.5069 212.71 77.009C213.056 76.4498 213.355 75.9126 213.608 75.3924C214.953 72.6192 216.226 67.7888 217.417 60.9191Z" fill="white" stroke="url(#paint1_linear)" stroke-width="1.67343"/>
    <path fill-rule="evenodd" clip-rule="evenodd" d="M203.48 54.746C202.548 57.7873 202.595 60.5165 203.621 62.9336C204.647 65.3507 206.787 67.1918 210.039 68.457C210.406 65.2556 210.09 62.4786 209.091 60.1259C208.092 57.7732 206.222 55.9799 203.48 54.746Z" fill="white"/>
    <path fill-rule="evenodd" clip-rule="evenodd" d="M210.913 46.3139C209.393 49.6106 208.872 52.2329 209.35 54.1809C209.828 56.1289 211.403 58.3673 214.076 60.8961C215.346 57.1841 215.699 54.4545 215.134 52.7073C214.569 50.9601 213.162 48.829 210.913 46.3139Z" fill="white"/>
    <path fill-rule="evenodd" clip-rule="evenodd" d="M228.277 49.0607C225.763 49.1222 223.738 49.9242 222.202 51.4666C220.666 53.0091 220.163 55.1094 220.693 57.7676C223.46 57.0575 225.266 55.9847 226.112 54.5493C226.958 53.1138 227.679 51.2842 228.277 49.0607Z" fill="white"/>
    <path fill-rule="evenodd" clip-rule="evenodd" d="M217.803 72.2481C217.948 68.8634 219.291 66.4777 221.832 65.0911C224.373 63.7045 226.803 63.2717 229.12 63.7929C228.354 66.1743 227.134 68.0994 225.459 69.5683C223.784 71.0372 221.232 71.9304 217.803 72.2481Z" fill="white"/>
    <path fill-rule="evenodd" clip-rule="evenodd" d="M182.69 59.3386C182.148 62.2867 182.294 64.5397 183.129 66.0975C183.965 67.6552 185.779 69.0737 188.573 70.353C188.772 67.3952 188.366 65.017 187.355 63.2184C186.344 61.4198 184.789 60.1266 182.69 59.3386Z" fill="white"/>
    <path fill-rule="evenodd" clip-rule="evenodd" d="M187.035 58.6562C186.905 55.2706 187.964 52.7401 190.212 51.0645C192.459 49.3889 195.477 48.5511 199.264 48.5511C197.935 52.1729 196.659 54.4808 195.434 55.4749C194.21 56.4689 191.41 57.5294 187.035 58.6562Z" fill="white"/>
    <path fill-rule="evenodd" clip-rule="evenodd" d="M199.631 37.4846C198.885 41.2841 198.885 43.9218 199.631 45.3977C200.378 46.8736 202.389 48.7037 205.666 50.8881C205.874 46.957 205.55 44.1011 204.696 42.3204C203.841 40.5398 202.153 38.9279 199.631 37.4846Z" fill="white"/>
    <path fill-rule="evenodd" clip-rule="evenodd" d="M207.918 27.9065C205.735 29.8089 204.527 31.6661 204.294 33.478C204.06 35.2898 204.924 37.9145 206.885 41.3519C208.564 38.4534 209.499 36.003 209.688 34.001C209.878 31.999 209.288 29.9675 207.918 27.9065Z" fill="white"/>
    <path fill-rule="evenodd" clip-rule="evenodd" d="M206.671 15.8698C205.018 17.2366 204.103 18.5709 203.927 19.8727C203.75 21.1744 204.404 23.0601 205.889 25.5298C207.161 23.4473 207.868 21.6868 208.012 20.2484C208.156 18.8101 207.709 17.3505 206.671 15.8698Z" fill="white"/>
    <path fill-rule="evenodd" clip-rule="evenodd" d="M220.016 37.8956C217.211 37.3052 214.649 37.6126 212.331 38.8178C210.012 40.023 208.687 42.3927 208.356 45.927C212.216 45.4473 214.826 44.6417 216.186 43.51C217.547 42.3783 218.823 40.5069 220.016 37.8956Z" fill="white"/>
    <path fill-rule="evenodd" clip-rule="evenodd" d="M223.06 42.3827C220.346 43.2241 218.592 44.2578 217.797 45.4841C217.003 46.7103 216.66 48.8532 216.77 51.9129C219.395 50.4637 221.101 49.0299 221.889 47.6116C222.677 46.1932 223.067 44.4503 223.06 42.3827Z" fill="white"/>
    <path fill-rule="evenodd" clip-rule="evenodd" d="M220.653 19.3243C218.517 19.7736 217.096 20.452 216.389 21.3597C215.682 22.2673 215.243 23.9373 215.072 26.3695C217.19 25.4316 218.609 24.4325 219.326 23.3721C220.044 22.3118 220.486 20.9625 220.653 19.3243Z" fill="white"/>
    <path fill-rule="evenodd" clip-rule="evenodd" d="M156.368 91.1272C154.207 90.8188 152.639 90.9701 151.665 91.5813C150.69 92.1924 149.706 93.6114 148.714 95.8385C151.025 95.6818 152.7 95.228 153.737 94.477C154.774 93.7261 155.651 92.6095 156.368 91.1272Z" fill="white"/>
    <path fill-rule="evenodd" clip-rule="evenodd" d="M161.352 94.2748C159.511 93.987 158.182 94.0878 157.363 94.5775C156.544 95.0671 155.73 96.2237 154.921 98.0472C156.882 97.9533 158.298 97.6043 159.168 97.0002C160.037 96.3961 160.765 95.4876 161.352 94.2748Z" fill="white"/>
    <path fill-rule="evenodd" clip-rule="evenodd" d="M175.611 85.0023C174.063 84.7899 172.939 84.9076 172.237 85.3555C171.535 85.8034 170.823 86.8369 170.1 88.4561C171.758 88.3307 172.96 87.9932 173.707 87.4437C174.455 86.8941 175.089 86.0803 175.611 85.0023Z" fill="white"/>
    <path fill-rule="evenodd" clip-rule="evenodd" d="M204.52 67.9104C201.806 68.7517 200.052 69.7855 199.257 71.0117C198.463 72.2379 198.12 74.3809 198.23 77.4406C200.855 75.9914 202.561 74.5576 203.349 73.1392C204.136 71.7209 204.527 69.9779 204.52 67.9104Z" fill="white"/>
    <path fill-rule="evenodd" clip-rule="evenodd" d="M233.407 36.8286C231.114 36.9926 229.097 37.9593 227.357 39.7286C225.617 41.4978 224.987 44.1255 225.467 47.6114C228.694 46.181 230.766 44.7888 231.685 43.4347C232.603 42.0806 233.177 39.8786 233.407 36.8286Z" fill="white"/>
    <path fill-rule="evenodd" clip-rule="evenodd" d="M238.678 93.0014C237.25 91.3855 235.322 90.4713 232.893 90.2587C230.465 90.0461 227.96 91.1932 225.381 93.7001C228.371 95.2351 230.679 95.9293 232.304 95.7825C233.93 95.6358 236.054 94.7087 238.678 93.0014Z" fill="white"/>
    <path fill-rule="evenodd" clip-rule="evenodd" d="M246.8 43.9013C243.015 42.9309 239.772 42.8646 237.071 43.7024C234.37 44.5403 231.98 47.2317 229.903 51.7768C234.337 52.353 237.638 52.0362 239.803 50.8264C241.969 49.6166 244.301 47.3083 246.8 43.9013Z" fill="white"/>
    <path fill-rule="evenodd" clip-rule="evenodd" d="M235.275 55.3544C232.895 54.8673 230.921 55.0433 229.354 55.8823C227.788 56.7213 226.737 58.354 226.201 60.7805C228.705 60.9117 230.717 60.4699 232.237 59.4553C233.757 58.4406 234.77 57.0737 235.275 55.3544Z" fill="white"/>
    <path fill-rule="evenodd" clip-rule="evenodd" d="M244.752 89.0278C243.669 87.5353 242.484 86.605 241.199 86.237C239.913 85.869 238.522 86.1886 237.026 87.1958C238.354 88.564 239.691 89.3734 241.037 89.6241C242.383 89.8748 243.622 89.6761 244.752 89.0278Z" fill="white"/>
    <path fill-rule="evenodd" clip-rule="evenodd" d="M249.796 51.9126C247.523 51.1443 245.412 51.1443 243.464 51.9126C241.516 52.681 240.026 54.5024 238.996 57.3769C242.43 57.1074 244.827 56.6091 246.188 55.882C247.549 55.155 248.752 53.8318 249.796 51.9126Z" fill="white"/>
    <path fill-rule="evenodd" clip-rule="evenodd" d="M242.666 59.8515C239.742 59.7271 237.28 60.0442 235.279 60.803C233.277 61.5617 231.551 63.6536 230.101 67.0787C233.477 67.0396 236.079 66.6139 237.907 65.8016C239.736 64.9893 241.322 63.006 242.666 59.8515Z" fill="white"/>
    <path fill-rule="evenodd" clip-rule="evenodd" d="M242.446 70.0492C240.468 68.958 238.071 68.72 235.256 69.3353C232.441 69.9506 230.544 71.8418 229.566 75.009C232.693 75.4135 235.235 75.2675 237.191 74.571C239.147 73.8745 240.899 72.3672 242.446 70.0492Z" fill="white"/>
    <path fill-rule="evenodd" clip-rule="evenodd" d="M236.947 38.0061C235.5 38.7668 234.646 40.1715 234.385 42.2201C236.497 41.9143 238.034 41.4974 238.996 40.9692C239.959 40.4411 240.8 39.4534 241.521 38.0061C239.919 37.2454 238.394 37.2454 236.947 38.0061Z" fill="white"/>
    <path fill-rule="evenodd" clip-rule="evenodd" d="M222.927 88.0347C222.294 86.6238 221.093 85.7771 219.325 85.4946C219.554 87.5403 219.888 89.0325 220.329 89.9712C220.77 90.9099 221.61 91.7385 222.85 92.4572C223.535 90.9198 223.561 89.4457 222.927 88.0347Z" fill="white"/>
    <path fill-rule="evenodd" clip-rule="evenodd" d="M235.604 29.7353C234.136 29.5325 232.901 30.0356 231.898 31.2446C230.895 32.4536 230.509 33.9141 230.738 35.6263C232.359 35.0227 233.575 34.2723 234.387 33.375C235.198 32.4778 235.604 31.2645 235.604 29.7353Z" fill="white"/>
    <path fill-rule="evenodd" clip-rule="evenodd" d="M227.587 23.3855C226.105 23.3631 224.941 24.013 224.093 25.3352C223.245 26.6573 223.039 28.1541 223.475 29.8255C225.011 29.0289 226.126 28.1359 226.822 27.1464C227.518 26.157 227.773 24.9034 227.587 23.3855Z" fill="white"/>
    <path fill-rule="evenodd" clip-rule="evenodd" d="M227.978 29.0169C226.406 29.297 224.977 30.511 223.689 32.659C222.401 34.8069 222.401 37.1966 223.689 39.8278C226.107 38.0234 227.537 36.2905 227.978 34.6293C228.418 32.968 228.418 31.0972 227.978 29.0169Z" fill="white"/>
    <path fill-rule="evenodd" clip-rule="evenodd" d="M221.79 26.1991C219.771 25.8118 217.571 26.6575 215.19 28.736C212.81 30.8145 211.98 33.3462 212.702 36.3312C215.564 35.6236 217.794 34.3995 219.392 32.6589C220.991 30.9183 221.79 28.765 221.79 26.1991Z" fill="white"/>
    <path fill-rule="evenodd" clip-rule="evenodd" d="M212.361 17.2619C210.312 19.4767 209.334 21.321 209.426 22.7951C209.519 24.2692 210.194 26.1297 211.452 28.3767C212.944 25.4385 213.721 23.3812 213.784 22.2047C213.847 21.0283 213.373 19.3807 212.361 17.2619Z" fill="white"/>
    <path fill-rule="evenodd" clip-rule="evenodd" d="M254.082 61.209C251.714 60.1855 249.321 60.0974 246.901 60.9445C244.482 61.7917 242.854 63.7242 242.018 66.7421C244.889 67.2909 247.386 67.0768 249.51 66.0999C251.635 65.123 253.158 63.4927 254.082 61.209Z" fill="white"/>
    <path fill-rule="evenodd" clip-rule="evenodd" d="M240.471 77.1649C241.43 74.2854 243.089 72.4511 245.447 71.6619C247.805 70.8726 250.287 70.8726 252.891 71.6619C251.097 74.6303 249.234 76.3474 247.301 76.8131C245.369 77.2788 243.092 77.3961 240.471 77.1649Z" fill="white"/>
    <path fill-rule="evenodd" clip-rule="evenodd" d="M236.769 83.325C236.068 81.6017 235.105 80.261 233.881 79.303C232.657 78.345 230.494 78.0202 227.392 78.3286C228.507 80.3485 229.842 81.7201 231.396 82.4433C232.95 83.1666 234.741 83.4605 236.769 83.325Z" fill="white"/>
    <path fill-rule="evenodd" clip-rule="evenodd" d="M250.363 82.9061C248.833 81.4091 247.195 80.432 245.45 79.9748C243.705 79.5176 241.239 80.1482 238.053 81.8666C240.161 83.4894 242.212 84.3318 244.205 84.3937C246.198 84.4557 248.251 83.9598 250.363 82.9061Z" fill="white"/>
    <path fill-rule="evenodd" clip-rule="evenodd" d="M203.876 25.8083C200.65 25.5156 197.938 26.215 195.739 27.9064C193.54 29.5979 192.17 32.4061 191.628 36.3312C195.335 35.5607 198.116 34.5161 199.97 33.1975C201.824 31.8788 203.126 29.4158 203.876 25.8083Z" fill="white"/>
    <path fill-rule="evenodd" clip-rule="evenodd" d="M200.742 15.8551C198.528 16.4351 196.976 17.5996 196.088 19.3487C195.2 21.0978 195.2 23.2294 196.088 25.7436C198.189 23.8262 199.567 22.1782 200.222 20.7993C200.876 19.4205 201.05 17.7725 200.742 15.8551Z" fill="white"/>
    <path fill-rule="evenodd" clip-rule="evenodd" d="M190.748 15.2527C189.107 17.1584 188.287 19.0751 188.287 21.0027C188.287 22.9304 189.469 24.9853 191.833 27.1674C192.933 24.7939 193.483 22.739 193.483 21.0027C193.483 19.2665 192.571 17.3498 190.748 15.2527Z" fill="white"/>
    <path fill-rule="evenodd" clip-rule="evenodd" d="M183.24 17.16C182.116 18.8434 181.653 20.7083 181.852 22.7546C182.05 24.8009 183.275 26.5139 185.526 27.8937C186.307 25.6668 186.556 23.6854 186.272 21.9494C185.988 20.2134 184.977 18.6169 183.24 17.16Z" fill="white"/>
    <path fill-rule="evenodd" clip-rule="evenodd" d="M179.821 42.2202C178.212 45.1414 177.603 47.6212 177.994 49.6596C178.385 51.6981 180.057 53.9686 183.01 56.4711C183.89 52.3853 184.11 49.5103 183.67 47.846C183.23 46.1817 181.947 44.3064 179.821 42.2202Z" fill="white"/>
    <path fill-rule="evenodd" clip-rule="evenodd" d="M195.981 38.7451C192.752 39.1683 190.445 40.0372 189.062 41.352C187.678 42.6668 186.765 45.3313 186.325 49.3456C189.537 48.483 191.856 47.1069 193.283 45.2172C194.709 43.3274 195.608 41.1701 195.981 38.7451Z" fill="white"/>
    <path fill-rule="evenodd" clip-rule="evenodd" d="M188.088 29.0169C185.143 30.4854 183.385 32.2508 182.814 34.3132C182.244 36.3756 182.529 39.1632 183.67 42.676C186.587 40.1074 188.236 37.712 188.617 35.4898C188.999 33.2676 188.822 31.11 188.088 29.0169Z" fill="white"/>
    <path fill-rule="evenodd" clip-rule="evenodd" d="M165.322 23.4598C164.996 28.2588 165.931 31.8519 168.128 34.2392C170.325 36.6264 173.969 37.8633 179.059 37.9498C177.868 33.4587 176.116 30.1029 173.801 27.8825C171.486 25.662 168.66 24.1878 165.322 23.4598Z" fill="white"/>
    <path fill-rule="evenodd" clip-rule="evenodd" d="M174.842 39.1709C173.054 40.4638 172.067 41.913 171.881 43.5186C171.695 45.1242 172.319 47.1684 173.753 49.6514C175.39 47.4338 176.208 45.5651 176.208 44.0454C176.208 42.5256 175.753 40.9008 174.842 39.1709Z" fill="white"/>
    <path fill-rule="evenodd" clip-rule="evenodd" d="M223.411 82.5215C223.675 84.7122 224.464 86.278 225.778 87.2191C227.092 88.1602 229.183 88.6055 232.05 88.5553C230.904 86.0482 229.666 84.4263 228.337 83.6895C227.008 82.9527 225.366 82.5634 223.411 82.5215Z" fill="white"/>
    <path fill-rule="evenodd" clip-rule="evenodd" d="M164.504 35.8466C162.863 39.2442 162.156 41.9772 162.385 44.0454C162.613 46.1137 164.183 48.7361 167.095 51.9129C168.731 48.3756 169.36 45.2967 168.981 42.6761C168.602 40.0555 167.11 37.779 164.504 35.8466Z" fill="white"/>
    <path fill-rule="evenodd" clip-rule="evenodd" d="M170.4 50.4918C170.466 53.3706 171.002 55.2545 172.01 56.1437C173.018 57.0328 175.063 58.1603 178.144 59.5261C177.401 56.5176 176.608 54.3817 175.767 53.1183C174.925 51.8549 173.136 50.9794 170.4 50.4918Z" fill="white"/>
    <path fill-rule="evenodd" clip-rule="evenodd" d="M161.734 26.91C159.832 28.2683 158.733 29.7862 158.437 31.4637C158.141 33.1413 158.691 35.1351 160.086 37.4452C161.741 35.4152 162.722 33.6593 163.029 32.1776C163.337 30.6959 162.905 28.94 161.734 26.91Z" fill="white"/>
    <path fill-rule="evenodd" clip-rule="evenodd" d="M173.443 19.8083C173.112 22.5116 173.553 24.6629 174.765 26.2624C175.978 27.8618 178.131 28.9994 181.225 29.6751C180.782 26.6408 180.043 24.3978 179.008 22.9462C177.973 21.4946 176.118 20.4487 173.443 19.8083Z" fill="white"/>
    <path fill-rule="evenodd" clip-rule="evenodd" d="M150.688 32.4559C150.54 35.7252 151.05 38.0941 152.216 39.5628C153.382 41.0314 155.858 42.2763 159.643 43.2975C159.061 40.3345 158.073 37.8508 156.68 35.8466C155.287 33.8423 153.289 32.7121 150.688 32.4559Z" fill="white"/>
    <path fill-rule="evenodd" clip-rule="evenodd" d="M158.637 46.4365C157.136 48.3129 156.524 50.6072 156.802 53.3194C157.079 56.0316 158.499 58.3904 161.061 60.3958C162.346 56.9055 162.668 54.0779 162.025 51.9127C161.383 49.7476 160.253 47.9222 158.637 46.4365Z" fill="white"/>
    <path fill-rule="evenodd" clip-rule="evenodd" d="M167.609 52.8531C166 54.2827 165.044 55.9669 164.74 57.9057C164.436 59.8445 164.931 61.9802 166.225 64.3129C167.979 61.9813 168.856 60.0714 168.856 58.583C168.856 57.0947 168.44 55.1847 167.609 52.8531Z" fill="white"/>
    <path fill-rule="evenodd" clip-rule="evenodd" d="M150.419 59.9771C150.391 61.8942 151.227 63.4981 152.925 64.7886C154.623 66.0792 156.739 66.5677 159.273 66.2542C158.536 64.3349 157.44 62.7999 155.988 61.6491C154.535 60.4983 152.679 59.941 150.419 59.9771Z" fill="white"/>
    <path fill-rule="evenodd" clip-rule="evenodd" d="M160.663 85.9932C162.274 87.0322 164.077 87.1736 166.072 86.4173C168.066 85.661 169.602 84.1253 170.679 81.8104C168.66 81.4189 166.778 81.5342 165.032 82.1563C163.286 82.7785 161.83 84.0574 160.663 85.9932Z" fill="white"/>
    <path fill-rule="evenodd" clip-rule="evenodd" d="M172.879 60.6175C171.486 61.4348 170.697 62.7499 170.511 64.5629C170.326 66.3759 170.901 68.1459 172.237 69.8731C173.296 68.4922 173.922 67.0162 174.114 65.4449C174.307 63.8736 173.895 62.2645 172.879 60.6175Z" fill="white"/>
    <path fill-rule="evenodd" clip-rule="evenodd" d="M152.36 79.5189C153.566 78.6864 154.934 78.3098 156.464 78.3892C157.993 78.4685 159.986 79.3428 162.441 81.0121C160.457 82.272 158.586 82.6984 156.83 82.2915C155.074 81.8846 153.584 80.9604 152.36 79.5189Z" fill="white"/>
    <path fill-rule="evenodd" clip-rule="evenodd" d="M158.277 91.2742C159.435 90.0273 160.881 89.2594 162.613 88.9703C164.346 88.6812 166.782 89.1822 169.921 90.4734C167.989 92.3999 165.992 93.3494 163.93 93.3218C161.867 93.2942 159.983 92.6117 158.277 91.2742Z" fill="white"/>
    <path fill-rule="evenodd" clip-rule="evenodd" d="M140.539 79.8683C141.842 78.8443 143.283 78.3257 144.859 78.3124C146.436 78.2991 148.438 79.1548 150.865 80.8794C148.728 82.4398 146.764 83.0488 144.975 82.7064C143.186 82.3641 141.707 81.418 140.539 79.8683Z" fill="white"/>
    <path fill-rule="evenodd" clip-rule="evenodd" d="M145.466 87.2905C146.751 85.8392 148.366 84.9276 150.312 84.5558C152.259 84.1841 155.009 84.6973 158.564 86.0955C156.419 88.3413 154.185 89.4733 151.862 89.4916C149.539 89.5099 147.407 88.7761 145.466 87.2905Z" fill="white"/>
    <path fill-rule="evenodd" clip-rule="evenodd" d="M191.913 67.4955C191.488 65.7113 191.649 63.9237 192.396 62.1326C193.143 60.3414 194.867 58.5838 197.568 56.8596C198.84 59.8743 198.835 62.3283 197.551 64.2216C196.267 66.1149 194.388 67.2062 191.913 67.4955Z" fill="white"/>
    <path fill-rule="evenodd" clip-rule="evenodd" d="M159.257 70.7289C156.446 69.8389 154.085 69.8389 152.176 70.7289C153.44 73.3758 154.948 75.0896 156.702 75.8701C158.455 76.6507 161.051 76.7807 164.489 76.26C163.812 73.4625 162.068 71.6188 159.257 70.7289Z" fill="white"/>
    <path fill-rule="evenodd" clip-rule="evenodd" d="M140.238 70.1325C141.717 73.3244 143.232 75.2739 144.784 75.9811C146.336 76.6883 149.085 76.8641 153.031 76.5084C151.059 73.6718 149.33 71.8362 147.844 71.0017C146.358 70.1671 143.823 69.8774 140.238 70.1325Z" fill="white"/>
    <path fill-rule="evenodd" clip-rule="evenodd" d="M147.406 42.2202C147.355 44.6974 147.84 46.6954 148.859 48.214C149.879 49.7326 151.813 50.9656 154.663 51.9129C154.357 49.0365 153.718 46.8815 152.745 45.4479C151.772 44.0143 149.992 42.9384 147.406 42.2202Z" fill="white"/>
    <path fill-rule="evenodd" clip-rule="evenodd" d="M142.537 51.1988C143.079 54.2424 144.438 56.3141 146.614 57.4139C148.791 58.5137 151.377 58.7182 154.374 58.0273C153.434 55.3822 151.906 53.465 149.789 52.2758C147.673 51.0865 145.255 50.7275 142.537 51.1988Z" fill="white"/>
    <path fill-rule="evenodd" clip-rule="evenodd" d="M138.39 58.1541C139.106 61.3455 140.286 63.5603 141.932 64.7983C143.578 66.0363 146.49 66.8032 150.667 67.099C148.624 63.0695 146.657 60.6168 144.767 59.7409C142.877 58.865 140.752 58.3361 138.39 58.1541Z" fill="white"/>
    <defs>
        <linearGradient id="paint0_linear" x1="197" y1="0" x2="197" y2="138" gradientUnits="userSpaceOnUse">
            <stop stop-color="#246AF0"/>
            <stop offset="1" stop-color="#74F8FC"/>
        </linearGradient>
        <linearGradient id="paint1_linear" x1="196.772" y1="60.9191" x2="196.772" y2="123.758" gradientUnits="userSpaceOnUse">
            <stop stop-color="#47A8F6"/>
            <stop offset="1" stop-color="#6DEAFB"/>
        </linearGradient>
    </defs>
</svg>
